<svg width="342" height="200" viewBox="0 0 342 200" fill="none" xmlns="http://www.w3.org/2000/svg">
<g opacity="0.25">
<mask id="path-1-inside-1_195_211" fill="white">
<path d="M-0.000488281 0C-0.000488281 39.5563 11.7293 78.2242 33.7056 111.114C55.6819 144.004 86.9176 169.638 123.463 184.776C160.008 199.913 200.221 203.874 239.018 196.157C277.814 188.44 313.45 169.392 341.421 141.421L200 0H-0.000488281Z"/>
</mask>
<path d="M-0.000488281 0C-0.000488281 39.5563 11.7293 78.2242 33.7056 111.114C55.6819 144.004 86.9176 169.638 123.463 184.776C160.008 199.913 200.221 203.874 239.018 196.157C277.814 188.44 313.45 169.392 341.421 141.421L200 0H-0.000488281Z" stroke="#00EEFD" stroke-width="4" mask="url(#path-1-inside-1_195_211)"/>
</g>
</svg>
