<svg width="342" height="200" viewBox="0 0 342 200" fill="none" xmlns="http://www.w3.org/2000/svg">
<g opacity="0.25">
<mask id="path-1-inside-1_195_210" fill="white">
<path d="M342 200C342 160.444 330.27 121.776 308.293 88.886C286.317 55.9961 255.081 30.3616 218.536 15.2241C181.991 0.0865667 141.778 -3.8741 102.981 3.84294C64.1852 11.56 28.5487 30.6081 0.578156 58.5786L142 200H342Z"/>
</mask>
<path d="M342 200C342 160.444 330.27 121.776 308.293 88.886C286.317 55.9961 255.081 30.3616 218.536 15.2241C181.991 0.0865667 141.778 -3.8741 102.981 3.84294C64.1852 11.56 28.5487 30.6081 0.578156 58.5786L142 200H342Z" stroke="#00EEFD" stroke-width="4" mask="url(#path-1-inside-1_195_210)"/>
</g>
</svg>
